<svg width="1359" height="1359" viewBox="0 0 1359 1359" fill="none" xmlns="http://www.w3.org/2000/svg">
<circle cx="679.5" cy="679.5" r="679.5" fill="white"/>
<path d="M1028.15 472.933C1022.61 477.235 924.751 532.402 924.751 655.069C924.751 796.954 1049.27 847.149 1053 848.392C1052.43 851.451 1033.22 917.135 987.346 984.062C946.444 1042.96 903.726 1101.76 838.742 1101.76C773.757 1101.76 757.033 1063.99 682.014 1063.99C608.906 1063.99 582.913 1103 523.471 1103C464.029 1103 422.553 1048.5 374.866 981.576C319.629 902.985 275 780.891 275 665.013C275 479.148 395.795 380.574 514.679 380.574C577.848 380.574 630.504 422.069 670.164 422.069C707.912 422.069 766.781 378.088 838.646 378.088C865.882 378.088 963.742 380.574 1028.15 472.933ZM804.529 299.402C834.25 264.122 855.275 215.17 855.275 166.218C855.275 159.429 854.701 152.545 853.459 147C805.103 148.817 747.572 179.22 712.882 219.472C685.646 250.45 660.225 299.402 660.225 349.023C660.225 356.481 661.468 363.938 662.041 366.328C665.099 366.902 670.068 367.571 675.038 367.571C718.425 367.571 772.993 338.506 804.529 299.402Z" fill="black"/>
</svg>
